<?xml version="1.0" encoding="UTF-8"?>
<!DOCTYPE svg PUBLIC "-//W3C//DTD SVG 1.1//EN" "http://www.w3.org/Graphics/SVG/1.1/DTD/svg11.dtd">
<svg xmlns="http://www.w3.org/2000/svg" version="1.1" fill="currentColor" fill-rule="evenodd" viewBox="0 0 2100 640" style="shape-rendering:geometricPrecision; text-rendering:geometricPrecision; image-rendering:optimizeQuality; fill-rule:evenodd; clip-rule:evenodd" xmlns:xlink="http://www.w3.org/1999/xlink">
<g><path style="opacity:1" fill="#fefefe" d="M -0.5,-0.5 C 111.833,-0.5 224.167,-0.5 336.5,-0.5C 309.706,3.08588 283.373,9.25255 257.5,18C 253.262,19.5415 249.262,21.3749 245.5,23.5C 241.703,23.8723 238.37,25.2057 235.5,27.5C 231.58,28.1266 228.247,29.7933 225.5,32.5C 224.508,32.3284 223.842,32.6618 223.5,33.5C 215.161,37.0039 207.161,41.1706 199.5,46C 194.228,48.7909 189.562,52.2909 185.5,56.5C 182.101,58.0312 178.767,59.8646 175.5,62C 82.2069,135.796 40.0402,232.296 49,351.5C 53.6986,395.32 66.8653,436.32 88.5,474.5C 91.1667,479.167 93.8333,483.833 96.5,488.5C 97.604,490.389 98.9373,492.055 100.5,493.5C 104.867,501.58 110.2,508.913 116.5,515.5C 127.391,530.061 139.724,543.395 153.5,555.5C 178.264,577.576 205.931,595.242 236.5,608.5C 252,616.401 268.334,622.401 285.5,626.5C 299.253,630.438 313.253,633.105 327.5,634.5C 332.62,635.797 337.954,636.631 343.5,637C 357.673,637.827 371.673,637.661 385.5,636.5C 400.461,635.219 415.461,633.219 430.5,630.5C 447.348,626.882 463.681,621.882 479.5,615.5C 487.982,613.123 495.982,609.79 503.5,605.5C 550.961,583.096 590.295,550.763 621.5,508.5C 633.383,492.917 643.717,476.25 652.5,458.5C 658.333,446.501 663.333,434.168 667.5,421.5C 668.566,419.299 669.233,416.965 669.5,414.5C 671.336,409.659 673.003,404.659 674.5,399.5C 700.156,292.062 678.323,195.728 609,110.5C 556.764,51.4577 491.597,15.4577 413.5,2.5C 406.273,2.14567 399.273,1.14567 392.5,-0.5C 961.5,-0.5 1530.5,-0.5 2099.5,-0.5C 2099.5,212.833 2099.5,426.167 2099.5,639.5C 1399.5,639.5 699.5,639.5 -0.5,639.5C -0.5,426.167 -0.5,212.833 -0.5,-0.5 Z"/></g>
<g><path style="opacity:1" fill="#070405" d="M 336.5,-0.5 C 355.167,-0.5 373.833,-0.5 392.5,-0.5C 399.273,1.14567 406.273,2.14567 413.5,2.5C 421.497,6.30687 429.164,10.8069 436.5,16C 454.291,30.7906 471.125,46.6239 487,63.5C 498.572,80.4082 506.739,98.7415 511.5,118.5C 511.963,121.482 512.296,124.482 512.5,127.5C 512.349,137.341 510.516,147.008 507,156.5C 500.667,168.167 494.333,179.833 488,191.5C 486.326,196.083 485.159,200.749 484.5,205.5C 484.149,223.811 483.982,242.145 484,260.5C 482.264,279.875 476.43,297.875 466.5,314.5C 469.004,317.252 472.004,319.252 475.5,320.5C 488.556,329.844 503.222,335.01 519.5,336C 527.906,340.2 536.572,343.867 545.5,347C 561.301,350.867 576.967,355.2 592.5,360C 600.288,363.394 607.955,367.061 615.5,371C 636.538,377.854 656.205,387.354 674.5,399.5C 673.003,404.659 671.336,409.659 669.5,414.5C 650.451,400.331 629.451,389.831 606.5,383C 601.341,380.588 596.341,377.921 591.5,375C 575.979,370.135 560.312,365.802 544.5,362C 535.361,359.43 526.695,355.764 518.5,351C 507.932,349.645 497.599,347.312 487.5,344C 478.852,340.011 470.519,335.511 462.5,330.5C 461.365,328.912 460.031,328.579 458.5,329.5C 455.097,337.209 452.597,345.209 451,353.5C 452.719,382.791 449.386,411.457 441,439.5C 437.945,445.333 435.278,451.333 433,457.5C 417.541,479.293 399.041,498.126 377.5,514C 373.571,515.477 369.571,516.644 365.5,517.5C 363.5,517.5 361.5,517.5 359.5,517.5C 351.718,517.713 344.051,516.879 336.5,515C 331.349,512.004 326.349,508.838 321.5,505.5C 319.853,502.527 317.853,499.86 315.5,497.5C 314.214,494.883 312.547,492.55 310.5,490.5C 286.265,459.809 273.265,424.809 271.5,385.5C 274.341,374.294 276.675,362.96 278.5,351.5C 280.384,345.202 278.718,344.035 273.5,348C 263.417,355.041 252.75,361.041 241.5,366C 223.826,376.839 205.826,387.172 187.5,397C 172.332,406.083 157.332,415.416 142.5,425C 132.18,436.317 123.013,448.484 115,461.5C 107.316,469.558 101.15,478.558 96.5,488.5C 93.8333,483.833 91.1667,479.167 88.5,474.5C 89.9616,470.183 92.1282,466.183 95,462.5C 102.774,453.393 109.774,443.726 116,433.5C 121.125,426.707 126.625,420.207 132.5,414C 170.186,390.151 208.853,367.818 248.5,347C 257.582,341.042 266.749,335.208 276,329.5C 276.667,327.167 276.667,324.833 276,322.5C 273.269,311.975 269.936,301.642 266,291.5C 262.924,290.712 259.758,290.212 256.5,290C 236.192,279.027 219.692,263.86 207,244.5C 200.612,231.688 198.945,218.355 202,204.5C 191.518,192.678 183.518,179.345 178,164.5C 165.87,127.397 168.37,91.3973 185.5,56.5C 189.562,52.2909 194.228,48.7909 199.5,46C 207.161,41.1706 215.161,37.0039 223.5,33.5C 195.025,58.2208 182.359,89.5541 185.5,127.5C 185.851,134.271 186.851,140.938 188.5,147.5C 188.941,152.327 190.107,156.993 192,161.5C 197.971,174.621 205.804,186.454 215.5,197C 227.593,201.752 239.259,207.418 250.5,214C 257.18,220.556 263.013,227.723 268,235.5C 273.819,227.874 279.152,219.874 284,211.5C 298.192,198.638 312.359,185.805 326.5,173C 333.676,168.183 341.676,166.183 350.5,167C 356.862,162.817 362.862,158.15 368.5,153C 377.361,150.831 385.028,152.831 391.5,159C 400.837,159.088 410.17,159.088 419.5,159C 424.781,162.382 427.948,167.216 429,173.5C 432,169.167 435,164.833 438,160.5C 439.031,152.832 442.531,146.666 448.5,142C 453.763,140.753 458.097,142.253 461.5,146.5C 464.11,151.614 466.943,156.614 470,161.5C 472.986,168.798 474.986,176.131 476,183.5C 482.667,170.167 489.333,156.833 496,143.5C 499.251,123.754 495.584,105.421 485,88.5C 480.836,80.0054 475.502,72.3387 469,65.5C 452.342,48.8331 434.509,33.6665 415.5,20C 406.312,15.3335 396.978,11.1668 387.5,7.5C 363.5,6.16667 339.5,6.16667 315.5,7.5C 292.316,13.4702 268.983,18.8036 245.5,23.5C 249.262,21.3749 253.262,19.5415 257.5,18C 283.373,9.25255 309.706,3.08588 336.5,-0.5 Z"/></g>
<g><path style="opacity:1" fill="#95887f" d="M 315.5,7.5 C 339.5,6.16667 363.5,6.16667 387.5,7.5C 366.34,8.4973 345.007,8.83064 323.5,8.5C 321.052,7.52693 318.385,7.1936 315.5,7.5 Z"/></g>
<g><path style="opacity:1" fill="#decec1" d="M 413.5,2.5 C 491.597,15.4577 556.764,51.4577 609,110.5C 678.323,195.728 700.156,292.062 674.5,399.5C 656.205,387.354 636.538,377.854 615.5,371C 607.955,367.061 600.288,363.394 592.5,360C 576.967,355.2 561.301,350.867 545.5,347C 536.572,343.867 527.906,340.2 519.5,336C 503.222,335.01 488.556,329.844 475.5,320.5C 477.205,317.458 479.205,314.458 481.5,311.5C 482.33,305.528 482.83,299.528 483,293.5C 483.333,294.167 483.667,294.833 484,295.5C 485.757,293.12 485.923,290.62 484.5,288C 485.305,283.251 485.805,278.418 486,273.5C 487.61,270.403 488.61,267.069 489,263.5C 489.667,257.5 490.333,251.5 491,245.5C 491.333,248.5 491.667,251.5 492,254.5C 492.498,251.183 492.665,247.85 492.5,244.5C 491.5,244.5 490.5,244.5 489.5,244.5C 489.33,243.178 489.663,242.011 490.5,241C 489.643,240.311 488.977,239.478 488.5,238.5C 490.963,225.957 491.797,213.29 491,200.5C 490.617,201.056 490.117,201.389 489.5,201.5C 493.295,190.571 498.628,180.571 505.5,171.5C 506.721,170.972 507.887,170.305 509,169.5C 512.053,165.954 514.886,162.288 517.5,158.5C 521.563,150.311 521.396,142.311 517,134.5C 516.501,130.514 516.334,126.514 516.5,122.5C 515.5,122.5 514.5,122.5 513.5,122.5C 513.011,121.005 512.345,119.671 511.5,118.5C 506.739,98.7415 498.572,80.4082 487,63.5C 471.125,46.6239 454.291,30.7906 436.5,16C 429.164,10.8069 421.497,6.30687 413.5,2.5 Z"/></g>
<g><path style="opacity:1" fill="#3c1c0b" d="M 387.5,7.5 C 396.978,11.1668 406.312,15.3335 415.5,20C 434.509,33.6665 452.342,48.8331 469,65.5C 475.502,72.3387 480.836,80.0054 485,88.5C 495.584,105.421 499.251,123.754 496,143.5C 489.333,156.833 482.667,170.167 476,183.5C 474.986,176.131 472.986,168.798 470,161.5C 466.943,156.614 464.11,151.614 461.5,146.5C 458.097,142.253 453.763,140.753 448.5,142C 442.531,146.666 439.031,152.832 438,160.5C 435,164.833 432,169.167 429,173.5C 427.948,167.216 424.781,162.382 419.5,159C 410.17,159.088 400.837,159.088 391.5,159C 385.028,152.831 377.361,150.831 368.5,153C 362.862,158.15 356.862,162.817 350.5,167C 341.676,166.183 333.676,168.183 326.5,173C 312.359,185.805 298.192,198.638 284,211.5C 279.152,219.874 273.819,227.874 268,235.5C 263.013,227.723 257.18,220.556 250.5,214C 239.259,207.418 227.593,201.752 215.5,197C 205.804,186.454 197.971,174.621 192,161.5C 190.107,156.993 188.941,152.327 188.5,147.5C 189.156,146.378 189.489,145.045 189.5,143.5C 188.028,135.229 187.362,126.896 187.5,118.5C 189.703,99.3987 195.203,81.3987 204,64.5C 212.888,51.6121 223.721,40.7788 236.5,32C 242.941,28.7797 249.608,26.113 256.5,24C 272.018,20.259 287.684,17.259 303.5,15C 310.392,13.3931 317.059,11.2265 323.5,8.5C 345.007,8.83064 366.34,8.4973 387.5,7.5 Z"/></g>
<g><path style="opacity:1" fill="#675c58" d="M 245.5,23.5 C 242.47,25.4032 239.137,26.7365 235.5,27.5C 238.37,25.2057 241.703,23.8723 245.5,23.5 Z"/></g>
<g><path style="opacity:1" fill="#787470" d="M 235.5,27.5 C 232.485,29.6744 229.151,31.3411 225.5,32.5C 228.247,29.7933 231.58,28.1266 235.5,27.5 Z"/></g>
<g><path style="opacity:1" fill="#d1c0b5" d="M 315.5,7.5 C 318.385,7.1936 321.052,7.52693 323.5,8.5C 317.059,11.2265 310.392,13.3931 303.5,15C 287.684,17.259 272.018,20.259 256.5,24C 249.608,26.113 242.941,28.7797 236.5,32C 223.721,40.7788 212.888,51.6121 204,64.5C 195.203,81.3987 189.703,99.3987 187.5,118.5C 186.833,121.5 186.167,124.5 185.5,127.5C 182.359,89.5541 195.025,58.2208 223.5,33.5C 223.842,32.6618 224.508,32.3284 225.5,32.5C 229.151,31.3411 232.485,29.6744 235.5,27.5C 239.137,26.7365 242.47,25.4032 245.5,23.5C 268.983,18.8036 292.316,13.4702 315.5,7.5 Z"/></g>
<g><path style="opacity:1" fill="#decec1" d="M 185.5,56.5 C 168.37,91.3973 165.87,127.397 178,164.5C 183.518,179.345 191.518,192.678 202,204.5C 198.945,218.355 200.612,231.688 207,244.5C 219.692,263.86 236.192,279.027 256.5,290C 259.758,290.212 262.924,290.712 266,291.5C 269.936,301.642 273.269,311.975 276,322.5C 276.667,324.833 276.667,327.167 276,329.5C 266.749,335.208 257.582,341.042 248.5,347C 208.853,367.818 170.186,390.151 132.5,414C 126.625,420.207 121.125,426.707 116,433.5C 109.774,443.726 102.774,453.393 95,462.5C 92.1282,466.183 89.9616,470.183 88.5,474.5C 66.8653,436.32 53.6986,395.32 49,351.5C 40.0402,232.296 82.2069,135.796 175.5,62C 178.767,59.8646 182.101,58.0312 185.5,56.5 Z"/></g>
<g><path style="opacity:1" fill="#050505" d="M 1738.5,205.5 C 1736.78,213.609 1735.78,221.943 1735.5,230.5C 1735.5,231.167 1735.5,231.833 1735.5,232.5C 1734.19,238.288 1733.52,244.288 1733.5,250.5C 1730.37,281.056 1728.04,311.723 1726.5,342.5C 1725.1,352.97 1724.43,363.636 1724.5,374.5C 1724.33,386.171 1724.5,397.838 1725,409.5C 1727.73,416.053 1732.56,418.22 1739.5,416C 1744.13,414.019 1748.46,411.519 1752.5,408.5C 1753.73,413.971 1752.06,418.471 1747.5,422C 1731.14,432.511 1714.81,443.011 1698.5,453.5C 1697.51,446.352 1697.18,439.019 1697.5,431.5C 1699.45,397.153 1701.45,362.82 1703.5,328.5C 1704.43,327.432 1704.77,326.099 1704.5,324.5C 1678.33,324.169 1652.33,324.502 1626.5,325.5C 1624.85,341.813 1623.35,358.146 1622,374.5C 1620.94,387.354 1617.27,399.354 1611,410.5C 1605.1,417.074 1598.6,422.908 1591.5,428C 1602.12,429.581 1612.78,430.915 1623.5,432C 1618.17,439 1612.83,446 1607.5,453C 1587.45,452.235 1567.45,450.901 1547.5,449C 1553.31,441.024 1559.31,433.191 1565.5,425.5C 1574.2,429.697 1581.37,428.03 1587,420.5C 1594.88,408.005 1599.21,394.338 1600,379.5C 1601.63,363.525 1602.79,347.525 1603.5,331.5C 1605.15,320.704 1606.15,309.704 1606.5,298.5C 1608.5,271.167 1610.5,243.833 1612.5,216.5C 1613.47,214.393 1613.8,212.059 1613.5,209.5C 1606.65,209.818 1599.99,210.485 1593.5,211.5C 1565.18,216.501 1550.85,233.501 1550.5,262.5C 1550.89,274.603 1553.23,286.27 1557.5,297.5C 1550.24,307.679 1542.74,317.679 1535,327.5C 1530.91,302.599 1531.91,277.933 1538,253.5C 1550.74,215.243 1576.9,193.243 1616.5,187.5C 1624.35,187.175 1632.02,187.508 1639.5,188.5C 1637.95,200.478 1636.61,212.478 1635.5,224.5C 1633.78,231.937 1632.78,239.604 1632.5,247.5C 1632.03,253.491 1631.7,259.491 1631.5,265.5C 1630.36,271.641 1629.7,277.974 1629.5,284.5C 1629.5,286.833 1629.5,289.167 1629.5,291.5C 1628.52,294.625 1628.19,297.958 1628.5,301.5C 1654.5,301.5 1680.5,301.5 1706.5,301.5C 1706.5,300.167 1706.5,298.833 1706.5,297.5C 1709.19,264.634 1713.36,231.967 1719,199.5C 1723.83,168.853 1735.5,141.186 1754,116.5C 1761.28,108.216 1769.44,101.049 1778.5,95C 1793.96,87.646 1809.3,87.9793 1824.5,96C 1817.3,104.899 1810.47,114.066 1804,123.5C 1792.67,112.727 1779.84,110.56 1765.5,117C 1755.01,126.474 1748.51,138.307 1746,152.5C 1742.27,169.995 1739.77,187.661 1738.5,205.5 Z"/></g>
<g><path style="opacity:1" fill="#060606" d="M 1960.5,450.5 C 1951.85,451.717 1943.18,451.717 1934.5,450.5C 1931.17,450.167 1927.83,449.833 1924.5,449.5C 1925.1,443.821 1925.77,438.155 1926.5,432.5C 1927.81,427.384 1928.47,422.051 1928.5,416.5C 1928.53,410.811 1928.87,405.145 1929.5,399.5C 1930.75,393.37 1931.41,387.037 1931.5,380.5C 1933.36,361.875 1934.7,343.209 1935.5,324.5C 1936.7,318.03 1937.36,311.363 1937.5,304.5C 1938.71,273.619 1941.87,242.952 1947,212.5C 1953.56,182.791 1965.9,155.791 1984,131.5C 1992.43,121.055 2002.6,112.888 2014.5,107C 2023.58,103.779 2032.91,102.779 2042.5,104C 2044.09,104.862 2045.75,105.529 2047.5,106C 2040.31,115.024 2033.31,124.191 2026.5,133.5C 2006.91,126.212 1991.74,131.545 1981,149.5C 1972.26,166.467 1966.92,184.467 1965,203.5C 1960.32,250.146 1956.82,296.812 1954.5,343.5C 1963.02,322.785 1973.85,303.451 1987,285.5C 1993.63,276.529 2001.8,269.362 2011.5,264C 2023.75,260.875 2031.59,265.375 2035,277.5C 2043.74,325.042 2036.08,369.709 2012,411.5C 2003.07,426.435 1990.9,437.935 1975.5,446C 1970.66,448.091 1965.66,449.591 1960.5,450.5 Z"/></g>
<g><path style="opacity:1" fill="#816f62" d="M 511.5,118.5 C 512.345,119.671 513.011,121.005 513.5,122.5C 513.5,124.5 513.5,126.5 513.5,128.5C 512.833,128.5 512.5,128.167 512.5,127.5C 512.296,124.482 511.963,121.482 511.5,118.5 Z"/></g>
<g><path style="opacity:1" fill="#e4c9b6" d="M 513.5,122.5 C 514.5,122.5 515.5,122.5 516.5,122.5C 516.334,126.514 516.501,130.514 517,134.5C 521.396,142.311 521.563,150.311 517.5,158.5C 514.886,162.288 512.053,165.954 509,169.5C 507.887,170.305 506.721,170.972 505.5,171.5C 508.271,164.954 510.771,158.288 513,151.5C 513.5,143.841 513.666,136.174 513.5,128.5C 513.5,126.5 513.5,124.5 513.5,122.5 Z"/></g>
<g><path style="opacity:1" fill="#9c837a" d="M 187.5,118.5 C 187.362,126.896 188.028,135.229 189.5,143.5C 189.489,145.045 189.156,146.378 188.5,147.5C 186.851,140.938 185.851,134.271 185.5,127.5C 186.167,124.5 186.833,121.5 187.5,118.5 Z"/></g>
<g><path style="opacity:1" fill="#f6ccb3" d="M 455.5,168.5 C 459.163,173.786 460.996,179.786 461,186.5C 463.184,189.866 464.517,193.533 465,197.5C 466.366,199.362 467.866,201.028 469.5,202.5C 469.617,204.484 468.95,206.15 467.5,207.5C 468.139,215.962 468.806,224.296 469.5,232.5C 472.776,264.389 464.942,293.389 446,319.5C 442.169,329.965 438.836,340.632 436,351.5C 431.62,357.092 427.12,362.592 422.5,368C 414.088,372.316 405.088,374.149 395.5,373.5C 384.819,373.664 374.486,371.831 364.5,368C 350.235,362.872 337.569,355.206 326.5,345C 321.167,341.667 315.833,338.333 310.5,335C 303.969,328.135 297.136,321.635 290,315.5C 285.431,302.609 280.597,289.943 275.5,277.5C 275.335,274.482 275.502,271.482 276,268.5C 276.278,267.584 276.778,266.918 277.5,266.5C 277.7,257.427 281.2,249.76 288,243.5C 290.779,237.479 294.113,231.813 298,226.5C 313.766,211.558 329.933,197.225 346.5,183.5C 347.833,183.5 349.167,183.5 350.5,183.5C 354.182,183.665 357.848,183.499 361.5,183C 368.105,179.209 374.105,174.709 379.5,169.5C 383.433,171.425 387.433,173.258 391.5,175C 398.826,175.5 406.159,175.666 413.5,175.5C 413.5,180.833 413.5,186.167 413.5,191.5C 419.5,191.5 425.5,191.5 431.5,191.5C 431.833,191.5 432.167,191.5 432.5,191.5C 435.579,191.74 438.579,191.407 441.5,190.5C 445.14,185.027 448.973,179.694 453,174.5C 454.122,172.593 454.955,170.593 455.5,168.5 Z"/></g>
<g><path style="opacity:1" fill="#351b11" d="M 512.5,127.5 C 512.5,128.167 512.833,128.5 513.5,128.5C 513.666,136.174 513.5,143.841 513,151.5C 510.771,158.288 508.271,164.954 505.5,171.5C 498.628,180.571 493.295,190.571 489.5,201.5C 488.766,202.708 488.433,204.041 488.5,205.5C 487.167,205.5 485.833,205.5 484.5,205.5C 485.159,200.749 486.326,196.083 488,191.5C 494.333,179.833 500.667,168.167 507,156.5C 510.516,147.008 512.349,137.341 512.5,127.5 Z"/></g>
<g><path style="opacity:1" fill="#3b1d13" d="M 455.5,168.5 C 454.955,170.593 454.122,172.593 453,174.5C 448.973,179.694 445.14,185.027 441.5,190.5C 438.579,191.407 435.579,191.74 432.5,191.5C 434.508,189.732 436.674,188.066 439,186.5C 443.61,178.925 448.444,171.592 453.5,164.5C 454.705,165.577 455.372,166.91 455.5,168.5 Z"/></g>
<g><path style="opacity:1" fill="#3d1e13" d="M 379.5,169.5 C 374.105,174.709 368.105,179.209 361.5,183C 357.848,183.499 354.182,183.665 350.5,183.5C 351.952,182.698 353.618,182.198 355.5,182C 362.011,177.577 368.345,172.911 374.5,168C 375.333,167.833 376.167,167.667 377,167.5C 378.376,167.684 379.209,168.351 379.5,169.5 Z"/></g>
<g><path style="opacity:1" fill="#090909" d="M 1064.5,172.5 C 1065.65,176.646 1065.81,180.98 1065,185.5C 1058.42,205.976 1046.42,222.643 1029,235.5C 1031.71,222.329 1035.37,209.329 1040,196.5C 1050,190.335 1058.16,182.335 1064.5,172.5 Z"/></g>
<g><path style="opacity:1" fill="#040404" d="M 1138.5,453.5 C 1129.36,452.267 1120.02,451.601 1110.5,451.5C 1102.67,450.565 1094.67,449.899 1086.5,449.5C 1085.45,449.649 1084.45,449.483 1083.5,449C 1089.17,441.333 1094.83,433.667 1100.5,426C 1105.73,426.976 1111.06,427.309 1116.5,427C 1123.56,419.844 1128.4,411.344 1131,401.5C 1133.61,393.705 1135.11,385.705 1135.5,377.5C 1136.88,371.383 1137.55,365.05 1137.5,358.5C 1139.22,345.227 1140.22,331.894 1140.5,318.5C 1141.97,308.691 1142.97,298.691 1143.5,288.5C 1146.09,258.445 1148.09,228.445 1149.5,198.5C 1094.89,213.111 1075.89,247.444 1092.5,301.5C 1085.33,310.5 1078.17,319.5 1071,328.5C 1070.24,324.012 1069.41,319.678 1068.5,315.5C 1068.31,302.48 1068.65,289.48 1069.5,276.5C 1078.03,226.128 1107.03,194.295 1156.5,181C 1236.96,171.119 1265.8,204.952 1243,282.5C 1226.74,317.625 1199.4,337.292 1161,341.5C 1159.82,361.825 1156.82,381.825 1152,401.5C 1145.93,412.24 1137.76,421.074 1127.5,428C 1139.41,429.71 1151.41,431.043 1163.5,432C 1157.78,438.716 1152.45,445.716 1147.5,453C 1144.52,453.498 1141.52,453.665 1138.5,453.5 Z"/></g>
<g><path style="opacity:1" fill="#050505" d="M 947.5,186.5 C 950.833,187.167 954.167,187.833 957.5,188.5C 951.728,205.984 948.562,223.984 948,242.5C 946.671,285.229 947.671,327.896 951,370.5C 952.671,383.543 954.671,396.543 957,409.5C 958.049,413.265 959.382,416.932 961,420.5C 965.091,424.305 969.924,425.472 975.5,424C 978.994,422.421 982.327,420.587 985.5,418.5C 986.823,421.913 986.656,425.247 985,428.5C 970.925,438.457 956.425,447.79 941.5,456.5C 936.992,439.781 933.825,422.781 932,405.5C 930.201,388.175 928.534,370.842 927,353.5C 923.833,356.667 920.667,359.833 917.5,363C 901.49,363.167 885.49,363.667 869.5,364.5C 864.287,383.921 856.12,401.921 845,418.5C 842.039,422.141 838.873,425.474 835.5,428.5C 834.957,428.56 834.624,428.893 834.5,429.5C 839.456,430.494 844.456,430.827 849.5,430.5C 854.118,431.219 858.785,431.719 863.5,432C 858.5,439 853.5,446 848.5,453C 832.502,452.789 816.502,452.289 800.5,451.5C 798.5,450.833 796.5,450.167 794.5,449.5C 799.953,442.208 805.619,435.042 811.5,428C 816.423,428.552 821.423,428.552 826.5,428C 835.239,416.355 841.739,403.522 846,389.5C 854.65,358.619 862.983,327.619 871,296.5C 875.368,282.756 880.035,269.089 885,255.5C 892.862,236.809 904.695,221.142 920.5,208.5C 901.231,202.945 881.564,201.112 861.5,203C 834.512,206.657 818.679,221.823 814,248.5C 811.883,265.675 814.05,282.175 820.5,298C 813.212,307.41 806.045,316.91 799,326.5C 786.963,287.432 792.296,251.099 815,217.5C 829.802,200.681 848.302,190.514 870.5,187C 896.141,183.901 921.808,183.734 947.5,186.5 Z"/></g>
<g><path style="opacity:1" fill="#050505" d="M 1506.5,180.5 C 1507.15,181.274 1507.48,182.274 1507.5,183.5C 1506.01,192.787 1505.01,202.12 1504.5,211.5C 1502.39,227.416 1500.89,243.416 1500,259.5C 1499.05,300.672 1497.88,341.839 1496.5,383C 1495.98,397 1497.15,410.833 1500,424.5C 1504.22,433.126 1511.05,435.96 1520.5,433C 1523.51,432.22 1526.35,431.053 1529,429.5C 1531.34,433.931 1530.51,437.765 1526.5,441C 1509.65,446.672 1492.65,451.839 1475.5,456.5C 1474.51,452.893 1474.18,449.226 1474.5,445.5C 1474.51,410.163 1474.84,374.83 1475.5,339.5C 1476.17,309.768 1477.84,280.102 1480.5,250.5C 1480.17,249.5 1479.83,248.5 1479.5,247.5C 1453.02,299.138 1431.52,352.805 1415,408.5C 1408.28,417.56 1401.94,426.893 1396,436.5C 1394.14,416.244 1390.8,396.244 1386,376.5C 1377.94,344.655 1369.27,312.989 1360,281.5C 1357.65,269.788 1355.15,258.121 1352.5,246.5C 1348.96,271.411 1345.96,296.411 1343.5,321.5C 1342.04,326.598 1341.38,331.931 1341.5,337.5C 1339.18,359.426 1335.35,381.092 1330,402.5C 1326.1,412.394 1319.94,420.56 1311.5,427C 1315.42,428.156 1319.42,428.656 1323.5,428.5C 1328.62,429.806 1333.95,430.473 1339.5,430.5C 1341.6,430.201 1343.6,430.534 1345.5,431.5C 1340.17,438.5 1334.83,445.5 1329.5,452.5C 1326.57,453.484 1323.57,453.817 1320.5,453.5C 1311.69,452.311 1302.69,451.645 1293.5,451.5C 1285.63,450.824 1277.63,449.991 1269.5,449C 1275.56,441.044 1281.72,433.211 1288,425.5C 1293.1,426.849 1298.27,427.349 1303.5,427C 1307.79,422.035 1311.29,416.535 1314,410.5C 1317.35,400.753 1319.68,390.753 1321,380.5C 1323.65,361.884 1325.82,343.217 1327.5,324.5C 1329.23,318.074 1330.23,311.407 1330.5,304.5C 1331.83,295.536 1332.83,286.536 1333.5,277.5C 1334.72,272.71 1335.39,267.71 1335.5,262.5C 1337.5,246.16 1339.5,229.827 1341.5,213.5C 1342.43,212.432 1342.77,211.099 1342.5,209.5C 1338.63,209.185 1334.96,209.518 1331.5,210.5C 1296.05,210.781 1278.05,228.615 1277.5,264C 1277.6,275.526 1279.6,286.693 1283.5,297.5C 1276.82,307.523 1269.65,317.19 1262,326.5C 1254.42,292.853 1258.75,260.853 1275,230.5C 1296.32,195.759 1327.15,181.426 1367.5,187.5C 1367.23,203.997 1368.73,220.331 1372,236.5C 1381.14,273.663 1390.8,310.663 1401,347.5C 1403.4,358.879 1405.9,370.212 1408.5,381.5C 1434.66,322.506 1459.16,262.839 1482,202.5C 1490.04,194.959 1498.2,187.626 1506.5,180.5 Z"/></g>
<g><path style="opacity:1" fill="#717171" d="M 947.5,186.5 C 951.226,186.177 954.893,186.511 958.5,187.5C 958.376,188.107 958.043,188.44 957.5,188.5C 954.167,187.833 950.833,187.167 947.5,186.5 Z"/></g>
<g><path style="opacity:1" fill="#b7b7b7" d="M 1504.5,211.5 C 1505.01,202.12 1506.01,192.787 1507.5,183.5C 1507.48,182.274 1507.15,181.274 1506.5,180.5C 1506.78,179.711 1507.28,179.044 1508,178.5C 1507.89,189.727 1506.73,200.727 1504.5,211.5 Z"/></g>
<g><path style="opacity:1" fill="#787878" d="M 1616.5,187.5 C 1624.34,186.18 1632.34,186.18 1640.5,187.5C 1640.38,188.107 1640.04,188.44 1639.5,188.5C 1632.02,187.508 1624.35,187.175 1616.5,187.5 Z"/></g>
<g><path style="opacity:1" fill="#73615a" d="M 413.5,175.5 C 414.487,180.305 414.821,185.305 414.5,190.5C 420.358,190.178 426.025,190.511 431.5,191.5C 425.5,191.5 419.5,191.5 413.5,191.5C 413.5,186.167 413.5,180.833 413.5,175.5 Z"/></g>
<g><path style="opacity:1" fill="#fcfcfc" d="M 1166.5,271.5 C 1168.33,260.384 1169.33,249.051 1169.5,237.5C 1169.84,223.774 1170.84,210.107 1172.5,196.5C 1201.62,195.491 1220.12,208.825 1228,236.5C 1230.5,254.312 1229.83,271.979 1226,289.5C 1215.66,315.433 1196.49,326.599 1168.5,323C 1164.54,323.199 1162.54,321.366 1162.5,317.5C 1163.53,302.132 1164.87,286.799 1166.5,271.5 Z"/></g>
<g><path style="opacity:1" fill="#5d5d5d" d="M 1331.5,210.5 C 1334.96,209.518 1338.63,209.185 1342.5,209.5C 1342.77,211.099 1342.43,212.432 1341.5,213.5C 1341.5,212.5 1341.5,211.5 1341.5,210.5C 1338.17,210.5 1334.83,210.5 1331.5,210.5 Z"/></g>
<g><path style="opacity:1" fill="#c9c9c9" d="M 1612.5,216.5 C 1612.66,214.473 1612.5,212.473 1612,210.5C 1605.92,211.476 1599.76,211.81 1593.5,211.5C 1599.99,210.485 1606.65,209.818 1613.5,209.5C 1613.8,212.059 1613.47,214.393 1612.5,216.5 Z"/></g>
<g><path style="opacity:1" fill="#fcfcfc" d="M 927.5,230.5 C 925.875,240.621 925.208,250.954 925.5,261.5C 925.5,264.833 925.5,268.167 925.5,271.5C 924.834,279.493 924.5,287.66 924.5,296C 924.384,309.696 925.05,323.196 926.5,336.5C 926.5,338.5 926.5,340.5 926.5,342.5C 909.82,342.833 893.153,342.499 876.5,341.5C 877.309,339.929 877.643,338.262 877.5,336.5C 883.612,303.666 893.445,271.999 907,241.5C 912.464,230.541 919.63,220.875 928.5,212.5C 928.833,213.5 929.167,214.5 929.5,215.5C 928.75,220.499 928.084,225.499 927.5,230.5 Z"/></g>
<g><path style="opacity:1" fill="#aeaeae" d="M 1738.5,205.5 C 1738.22,214.057 1737.22,222.391 1735.5,230.5C 1735.78,221.943 1736.78,213.609 1738.5,205.5 Z"/></g>
<g><path style="opacity:1" fill="#a48c81" d="M 469.5,202.5 C 469.649,212.298 469.649,222.298 469.5,232.5C 468.806,224.296 468.139,215.962 467.5,207.5C 468.95,206.15 469.617,204.484 469.5,202.5 Z"/></g>
<g><path style="opacity:1" fill="#f0c9b3" d="M 215.5,213.5 C 223.295,216.392 230.962,219.892 238.5,224C 246.365,229.884 252.198,237.384 256,246.5C 259.293,256.413 263.126,266.08 267.5,275.5C 265.181,276.167 262.847,276.334 260.5,276C 243,265.167 228.833,251 218,233.5C 215.872,227.009 215.039,220.342 215.5,213.5 Z"/></g>
<g><path style="opacity:1" fill="#b4b4b4" d="M 1635.5,224.5 C 1635.32,232.408 1634.32,240.074 1632.5,247.5C 1632.78,239.604 1633.78,231.937 1635.5,224.5 Z"/></g>
<g><path style="opacity:1" fill="#3b1d13" d="M 346.5,183.5 C 329.933,197.225 313.766,211.558 298,226.5C 294.113,231.813 290.779,237.479 288,243.5C 281.2,249.76 277.7,257.427 277.5,266.5C 277.737,265.209 277.404,264.209 276.5,263.5C 276.34,258.434 276.84,253.434 278,248.5C 280.615,244.217 283.615,240.217 287,236.5C 288.473,232.221 290.473,228.221 293,224.5C 307.072,211.217 321.238,198.051 335.5,185C 339.113,182.725 342.78,182.225 346.5,183.5 Z"/></g>
<g><path style="opacity:1" fill="#9c9c9c" d="M 927.5,230.5 C 927.372,241.02 926.706,251.353 925.5,261.5C 925.208,250.954 925.875,240.621 927.5,230.5 Z"/></g>
<g><path style="opacity:1" fill="#e0c5b6" d="M 475.5,320.5 C 472.004,319.252 469.004,317.252 466.5,314.5C 476.43,297.875 482.264,279.875 484,260.5C 483.982,242.145 484.149,223.811 484.5,205.5C 485.833,205.5 487.167,205.5 488.5,205.5C 488.433,204.041 488.766,202.708 489.5,201.5C 490.117,201.389 490.617,201.056 491,200.5C 491.797,213.29 490.963,225.957 488.5,238.5C 488.977,239.478 489.643,240.311 490.5,241C 489.663,242.011 489.33,243.178 489.5,244.5C 490.5,244.5 491.5,244.5 492.5,244.5C 492.665,247.85 492.498,251.183 492,254.5C 491.667,251.5 491.333,248.5 491,245.5C 490.333,251.5 489.667,257.5 489,263.5C 488.61,267.069 487.61,270.403 486,273.5C 485.805,278.418 485.305,283.251 484.5,288C 485.923,290.62 485.757,293.12 484,295.5C 483.667,294.833 483.333,294.167 483,293.5C 482.83,299.528 482.33,305.528 481.5,311.5C 479.205,314.458 477.205,317.458 475.5,320.5 Z"/></g>
<g><path style="opacity:1" fill="#a5a5a5" d="M 1735.5,232.5 C 1735.61,238.726 1734.95,244.726 1733.5,250.5C 1733.52,244.288 1734.19,238.288 1735.5,232.5 Z"/></g>
<g><path style="opacity:1" fill="#a5a5a5" d="M 1169.5,237.5 C 1169.33,249.051 1168.33,260.384 1166.5,271.5C 1166.91,259.969 1167.91,248.636 1169.5,237.5 Z"/></g>
<g><path style="opacity:1" fill="#060606" d="M 1809.5,349.5 C 1808.18,357.299 1807.52,365.299 1807.5,373.5C 1806.09,383.297 1805.42,393.297 1805.5,403.5C 1805.39,410.243 1805.89,416.91 1807,423.5C 1813.33,427.621 1819.49,427.121 1825.5,422C 1844.57,400.712 1858.07,376.212 1866,348.5C 1868.55,338.619 1870.55,328.619 1872,318.5C 1873.74,303.301 1875.24,287.967 1876.5,272.5C 1883.24,269.046 1890.07,265.713 1897,262.5C 1898.03,262.836 1898.53,263.503 1898.5,264.5C 1897.34,267.273 1896.68,270.273 1896.5,273.5C 1896.5,274.167 1896.5,274.833 1896.5,275.5C 1894.87,282.276 1893.87,289.276 1893.5,296.5C 1893.5,296.833 1893.5,297.167 1893.5,297.5C 1892.32,303.301 1891.65,309.301 1891.5,315.5C 1889.34,332.3 1887.67,349.3 1886.5,366.5C 1885.26,371.96 1884.6,377.627 1884.5,383.5C 1883.62,388.103 1883.28,392.77 1883.5,397.5C 1881.52,407.126 1881.19,416.793 1882.5,426.5C 1882.41,427.496 1882.75,428.329 1883.5,429C 1888.18,429.248 1892.01,427.415 1895,423.5C 1901.16,414.184 1905.99,404.184 1909.5,393.5C 1911.4,394.797 1912.4,396.63 1912.5,399C 1906.69,417.954 1897.03,434.621 1883.5,449C 1880.66,450.92 1877.66,452.587 1874.5,454C 1866.75,455.593 1862.25,452.426 1861,444.5C 1860.28,435.139 1860.45,425.806 1861.5,416.5C 1862.64,412.036 1863.31,407.37 1863.5,402.5C 1863.48,394.611 1864.14,386.778 1865.5,379C 1865.17,377.833 1864.83,376.667 1864.5,375.5C 1852.48,402.044 1836.15,425.544 1815.5,446C 1810.39,450.367 1804.56,453.2 1798,454.5C 1791.04,453.541 1787.04,449.541 1786,442.5C 1785.03,437.047 1784.53,431.547 1784.5,426C 1786.87,390.172 1789.37,354.339 1792,318.5C 1792.67,309.167 1792.67,299.833 1792,290.5C 1790.48,287.994 1788.32,287.16 1785.5,288C 1782.7,289.793 1780.2,291.96 1778,294.5C 1773.29,302.62 1768.96,310.953 1765,319.5C 1763.41,315.691 1763.08,311.691 1764,307.5C 1771.04,290.793 1781.54,276.626 1795.5,265C 1804.84,260.419 1810.67,263.252 1813,273.5C 1813.17,278.167 1813.33,282.833 1813.5,287.5C 1812.11,308.164 1810.77,328.831 1809.5,349.5 Z"/></g>
<g><path style="opacity:1" fill="#060606" d="M 1036.5,333.5 C 1035.19,339.288 1034.52,345.288 1034.5,351.5C 1030.63,376.558 1028.8,401.891 1029,427.5C 1030.42,429.363 1032.25,429.863 1034.5,429C 1037.63,426.872 1040.46,424.372 1043,421.5C 1047.89,412.397 1052.22,403.063 1056,393.5C 1057.95,394.994 1058.78,396.994 1058.5,399.5C 1053,419.009 1043,435.842 1028.5,450C 1024.2,453.982 1019.2,455.315 1013.5,454C 1010.16,451.328 1008.33,447.828 1008,443.5C 1007.5,436.842 1007.33,430.175 1007.5,423.5C 1008.95,414.692 1009.95,405.692 1010.5,396.5C 1010.69,391.155 1011.02,385.822 1011.5,380.5C 1012.89,375.731 1013.56,370.731 1013.5,365.5C 1013.5,364.167 1013.5,362.833 1013.5,361.5C 1015.06,353.372 1016.06,345.039 1016.5,336.5C 1016.67,331.819 1017,327.152 1017.5,322.5C 1018.72,317.71 1019.39,312.71 1019.5,307.5C 1019.67,301.491 1019.5,295.491 1019,289.5C 1018.04,288.106 1016.71,287.439 1015,287.5C 1011.38,288.484 1008.38,290.484 1006,293.5C 1000.55,302.06 995.886,311.06 992,320.5C 989.94,314.413 990.274,308.413 993,302.5C 1000.55,287.211 1011.05,274.378 1024.5,264C 1029.9,261.688 1034.4,262.855 1038,267.5C 1039.69,272.333 1040.53,277.333 1040.5,282.5C 1039.27,299.522 1037.93,316.522 1036.5,333.5 Z"/></g>
<g><path style="opacity:1" fill="#a6938b" d="M 276.5,263.5 C 277.404,264.209 277.737,265.209 277.5,266.5C 276.778,266.918 276.278,267.584 276,268.5C 275.502,271.482 275.335,274.482 275.5,277.5C 274.109,272.738 274.442,268.072 276.5,263.5 Z"/></g>
<g><path style="opacity:1" fill="#b0b0b0" d="M 1335.5,262.5 C 1335.39,267.71 1334.72,272.71 1333.5,277.5C 1333.3,272.25 1333.97,267.25 1335.5,262.5 Z"/></g>
<g><path style="opacity:1" fill="#9e9e9e" d="M 1898.5,264.5 C 1898.78,267.829 1898.12,270.829 1896.5,273.5C 1896.68,270.273 1897.34,267.273 1898.5,264.5 Z"/></g>
<g><path style="opacity:1" fill="#8d8d8d" d="M 1631.5,265.5 C 1631.76,272.072 1631.09,278.406 1629.5,284.5C 1629.7,277.974 1630.36,271.641 1631.5,265.5 Z"/></g>
<g><path style="opacity:1" fill="#acacac" d="M 1896.5,275.5 C 1896.32,282.749 1895.32,289.749 1893.5,296.5C 1893.87,289.276 1894.87,282.276 1896.5,275.5 Z"/></g>
<g><path style="opacity:1" fill="#9c9c9c" d="M 1069.5,276.5 C 1068.65,289.48 1068.31,302.48 1068.5,315.5C 1067.83,310.177 1067.5,304.677 1067.5,299C 1067.29,291.266 1067.95,283.766 1069.5,276.5 Z"/></g>
<g><path style="opacity:1" fill="#fbfbfb" d="M 2000.5,291.5 C 2008.12,290.06 2012.96,293.06 2015,300.5C 2019.58,336.869 2015.58,372.202 2003,406.5C 1998.67,417.825 1991.17,426.325 1980.5,432C 1968.54,433.956 1957.87,431.123 1948.5,423.5C 1946.73,379.984 1958.56,340.651 1984,305.5C 1988.81,299.842 1994.31,295.176 2000.5,291.5 Z"/></g>
<g><path style="opacity:1" fill="#a5a5a5" d="M 1143.5,288.5 C 1142.97,298.691 1141.97,308.691 1140.5,318.5C 1140.52,308.256 1141.52,298.256 1143.5,288.5 Z"/></g>
<g><path style="opacity:1" fill="#c3c3c3" d="M 1629.5,291.5 C 1629.5,294.5 1629.5,297.5 1629.5,300.5C 1654.83,300.5 1680.17,300.5 1705.5,300.5C 1705.26,299.209 1705.6,298.209 1706.5,297.5C 1706.5,298.833 1706.5,300.167 1706.5,301.5C 1680.5,301.5 1654.5,301.5 1628.5,301.5C 1628.19,297.958 1628.52,294.625 1629.5,291.5 Z"/></g>
<g><path style="opacity:1" fill="#a9a9a9" d="M 1893.5,297.5 C 1893.72,303.739 1893.06,309.739 1891.5,315.5C 1891.65,309.301 1892.32,303.301 1893.5,297.5 Z"/></g>
<g><path style="opacity:1" fill="#b8b8b8" d="M 925.5,271.5 C 925.422,293.175 925.756,314.842 926.5,336.5C 925.05,323.196 924.384,309.696 924.5,296C 924.5,287.66 924.834,279.493 925.5,271.5 Z"/></g>
<g><path style="opacity:1" fill="#a7a7a7" d="M 1330.5,304.5 C 1330.23,311.407 1329.23,318.074 1327.5,324.5C 1327.77,317.593 1328.77,310.926 1330.5,304.5 Z"/></g>
<g><path style="opacity:1" fill="#959595" d="M 1606.5,298.5 C 1606.15,309.704 1605.15,320.704 1603.5,331.5C 1603.66,320.28 1604.66,309.28 1606.5,298.5 Z"/></g>
<g><path style="opacity:1" fill="#a9a9a9" d="M 1937.5,304.5 C 1937.36,311.363 1936.7,318.03 1935.5,324.5C 1935.29,317.604 1935.96,310.937 1937.5,304.5 Z"/></g>
<g><path style="opacity:1" fill="#909090" d="M 1019.5,307.5 C 1019.39,312.71 1018.72,317.71 1017.5,322.5C 1017.3,317.25 1017.97,312.25 1019.5,307.5 Z"/></g>
<g><path style="opacity:1" fill="#cfcfcf" d="M 1626.5,325.5 C 1652.33,324.502 1678.33,324.169 1704.5,324.5C 1704.77,326.099 1704.43,327.432 1703.5,328.5C 1703.5,327.5 1703.5,326.5 1703.5,325.5C 1677.83,325.5 1652.17,325.5 1626.5,325.5 Z"/></g>
<g><path style="opacity:1" fill="#afafaf" d="M 1343.5,321.5 C 1343.62,327.069 1342.96,332.402 1341.5,337.5C 1341.38,331.931 1342.04,326.598 1343.5,321.5 Z"/></g>
<g><path style="opacity:1" fill="#5f5e5e" d="M 462.5,330.5 C 470.519,335.511 478.852,340.011 487.5,344C 497.599,347.312 507.932,349.645 518.5,351C 526.695,355.764 535.361,359.43 544.5,362C 560.312,365.802 575.979,370.135 591.5,375C 596.341,377.921 601.341,380.588 606.5,383C 629.451,389.831 650.451,400.331 669.5,414.5C 669.233,416.965 668.566,419.299 667.5,421.5C 660.825,422.869 654.159,424.036 647.5,425C 646.941,424.275 646.608,423.442 646.5,422.5C 648.643,419.537 649.643,416.204 649.5,412.5C 641.319,411.549 633.653,413.049 626.5,417C 613.584,426.748 602.584,438.248 593.5,451.5C 592.475,451.103 592.308,450.437 593,449.5C 600.87,438.928 608.37,428.095 615.5,417C 608.347,417.589 601.347,417.422 594.5,416.5C 606.587,413.971 618.254,410.138 629.5,405C 630.059,404.275 630.392,403.442 630.5,402.5C 627.937,397.442 623.937,393.942 618.5,392C 612.182,388.92 605.515,387.42 598.5,387.5C 598.343,388.873 598.51,390.207 599,391.5C 603.333,395.167 607.667,398.833 612,402.5C 612.167,402.833 612.333,403.167 612.5,403.5C 611.667,403.833 610.833,404.167 610,404.5C 589.206,400.334 568.706,394.834 548.5,388C 545.418,386.591 542.585,384.758 540,382.5C 540.011,379.563 539.845,376.73 539.5,374C 536.07,373.044 532.57,372.544 529,372.5C 518.802,373.336 508.635,374.336 498.5,375.5C 498.351,374.448 498.517,373.448 499,372.5C 503.333,368.833 507.667,365.167 512,361.5C 512.49,360.207 512.657,358.873 512.5,357.5C 498.615,357.361 487.448,362.694 479,373.5C 477.919,378.418 477.419,383.418 477.5,388.5C 478.312,400.516 479.312,412.516 480.5,424.5C 480.657,425.873 480.49,427.207 480,428.5C 473.714,435.356 469.714,443.356 468,452.5C 466.988,458.796 466.488,465.129 466.5,471.5C 467.822,471.67 468.989,471.337 470,470.5C 475.236,459.906 479.736,449.239 483.5,438.5C 484.979,448.143 486.312,457.81 487.5,467.5C 484.07,479.965 481.57,492.631 480,505.5C 477.475,528.434 475.808,551.434 475,574.5C 474.333,577.167 473.667,579.833 473,582.5C 472.31,583.738 471.81,583.738 471.5,582.5C 473.479,567.25 473.979,551.916 473,536.5C 472.041,522.164 471.041,507.83 470,493.5C 468.356,472.749 457.523,465.582 437.5,472C 434.833,473.667 432.167,475.333 429.5,477C 427.984,478.897 427.317,481.064 427.5,483.5C 431.444,482.205 435.444,480.872 439.5,479.5C 443.499,479.311 445.499,481.144 445.5,485C 445.385,487.732 444.552,490.232 443,492.5C 429.496,509.347 412.662,521.514 392.5,529C 388.004,529.852 383.67,529.352 379.5,527.5C 379.167,528.167 378.833,528.833 378.5,529.5C 380.02,532.72 381.353,536.053 382.5,539.5C 382.223,543.893 379.889,546.059 375.5,546C 373.623,548.251 372.123,550.751 371,553.5C 369.249,560.753 368.082,568.087 367.5,575.5C 366.676,579.312 366.176,583.312 366,587.5C 364.618,575.973 362.285,564.64 359,553.5C 357.254,549.673 355.254,546.007 353,542.5C 348.133,537.968 343.633,533.134 339.5,528C 344.067,529.601 348.734,531.268 353.5,533C 359.755,534.127 365.755,533.46 371.5,531C 373.394,529.921 373.727,528.587 372.5,527C 363.132,527.478 354.799,524.812 347.5,519C 351.688,518.824 355.688,518.324 359.5,517.5C 361.5,517.5 363.5,517.5 365.5,517.5C 374.622,519.972 382.955,518.138 390.5,512C 407.82,497.352 422.987,480.852 436,462.5C 446.731,442.185 452.398,420.518 453,397.5C 451.02,374.341 454.187,352.008 462.5,330.5 Z"/></g>
<g><path style="opacity:1" fill="#bababa" d="M 1036.5,333.5 C 1036.72,339.739 1036.06,345.739 1034.5,351.5C 1034.52,345.288 1035.19,339.288 1036.5,333.5 Z"/></g>
<g><path style="opacity:1" fill="#a4a4a4" d="M 877.5,336.5 C 877.643,338.262 877.309,339.929 876.5,341.5C 893.153,342.499 909.82,342.833 926.5,342.5C 926.5,340.5 926.5,338.5 926.5,336.5C 927.468,338.607 927.802,340.941 927.5,343.5C 910.167,343.5 892.833,343.5 875.5,343.5C 875.41,340.848 876.076,338.515 877.5,336.5 Z"/></g>
<g><path style="opacity:1" fill="#9a9a9a" d="M 1016.5,336.5 C 1016.06,345.039 1015.06,353.372 1013.5,361.5C 1013.61,352.924 1014.61,344.59 1016.5,336.5 Z"/></g>
<g><path style="opacity:1" fill="#605f5f" d="M 278.5,351.5 C 276.675,362.96 274.341,374.294 271.5,385.5C 273.265,424.809 286.265,459.809 310.5,490.5C 306.086,493.078 301.753,492.911 297.5,490C 281.553,469.533 271.386,446.366 267,420.5C 267.5,409.795 265.833,399.462 262,389.5C 259.164,383.49 254.664,379.49 248.5,377.5C 249.763,382.032 251.597,386.365 254,390.5C 254.494,392.134 254.66,393.801 254.5,395.5C 246.656,394.558 238.989,393.058 231.5,391C 230.639,394.166 231.472,397 234,399.5C 234.495,401.473 234.662,403.473 234.5,405.5C 228.579,404.083 222.579,403.083 216.5,402.5C 201.636,403.766 189.303,410.099 179.5,421.5C 179.833,421.833 180.167,422.167 180.5,422.5C 191.449,416.685 202.783,412.019 214.5,408.5C 211.104,415.065 206.104,420.232 199.5,424C 190.527,429.064 180.86,431.73 170.5,432C 166.103,433.617 162.269,436.117 159,439.5C 154.359,451.824 148.359,463.491 141,474.5C 138.795,477.04 136.295,479.207 133.5,481C 128.5,480.667 123.5,480.333 118.5,480C 113.02,482.971 109.686,487.471 108.5,493.5C 114.319,491.749 119.985,489.749 125.5,487.5C 123.576,497.307 120.576,506.64 116.5,515.5C 110.2,508.913 104.867,501.58 100.5,493.5C 103.015,488.143 105.849,482.81 109,477.5C 118.773,465.727 127.773,453.394 136,440.5C 140.202,436.633 144.035,432.467 147.5,428C 163.164,417.499 179.164,407.499 195.5,398C 223.544,382.983 251.211,367.483 278.5,351.5 Z"/></g>
<g><path style="opacity:1" fill="#131313" d="M 594.5,416.5 C 583.375,418.153 572.709,421.32 562.5,426C 552.425,433.234 544.758,442.401 539.5,453.5C 531.664,469.674 525.997,486.674 522.5,504.5C 517.355,524.9 512.855,545.567 509,566.5C 508.333,571.833 508.333,577.167 509,582.5C 509.718,583.451 510.551,583.617 511.5,583C 519.196,573.777 526.029,563.944 532,553.5C 548.521,517.136 569.021,483.136 593.5,451.5C 602.584,438.248 613.584,426.748 626.5,417C 633.653,413.049 641.319,411.549 649.5,412.5C 649.643,416.204 648.643,419.537 646.5,422.5C 646.608,423.442 646.941,424.275 647.5,425C 654.159,424.036 660.825,422.869 667.5,421.5C 663.333,434.168 658.333,446.501 652.5,458.5C 644.716,432.666 632.549,430.666 616,452.5C 615.312,453.332 615.479,453.998 616.5,454.5C 621.278,452.361 626.111,450.361 631,448.5C 632.107,448.585 633.107,448.919 634,449.5C 634.167,451.167 634.333,452.833 634.5,454.5C 631.319,473.557 626.986,491.557 621.5,508.5C 590.295,550.763 550.961,583.096 503.5,605.5C 500.743,575.108 497.409,544.775 493.5,514.5C 492.326,498.483 490.326,482.816 487.5,467.5C 486.312,457.81 484.979,448.143 483.5,438.5C 482.209,433.779 481.209,429.112 480.5,424.5C 479.312,412.516 478.312,400.516 477.5,388.5C 477.419,383.418 477.919,378.418 479,373.5C 487.448,362.694 498.615,357.361 512.5,357.5C 512.657,358.873 512.49,360.207 512,361.5C 507.667,365.167 503.333,368.833 499,372.5C 498.517,373.448 498.351,374.448 498.5,375.5C 508.635,374.336 518.802,373.336 529,372.5C 532.57,372.544 536.07,373.044 539.5,374C 539.845,376.73 540.011,379.563 540,382.5C 542.585,384.758 545.418,386.591 548.5,388C 568.706,394.834 589.206,400.334 610,404.5C 610.833,404.167 611.667,403.833 612.5,403.5C 612.333,403.167 612.167,402.833 612,402.5C 607.667,398.833 603.333,395.167 599,391.5C 598.51,390.207 598.343,388.873 598.5,387.5C 605.515,387.42 612.182,388.92 618.5,392C 623.937,393.942 627.937,397.442 630.5,402.5C 630.392,403.442 630.059,404.275 629.5,405C 618.254,410.138 606.587,413.971 594.5,416.5 Z"/></g>
<g><path style="opacity:1" fill="#a6a6a6" d="M 1809.5,349.5 C 1809.59,357.709 1808.92,365.709 1807.5,373.5C 1807.52,365.299 1808.18,357.299 1809.5,349.5 Z"/></g>
<g><path style="opacity:1" fill="#5f5a55" d="M 297.5,343.5 C 296.226,358.039 293.726,372.373 290,386.5C 289.501,390.821 289.334,395.154 289.5,399.5C 286.787,393.886 285.954,387.886 287,381.5C 290.283,368.249 293.117,354.916 295.5,341.5C 296.522,341.855 297.189,342.522 297.5,343.5 Z"/></g>
<g><path style="opacity:1" fill="#a1a1a1" d="M 1137.5,358.5 C 1137.55,365.05 1136.88,371.383 1135.5,377.5C 1135.45,370.95 1136.12,364.617 1137.5,358.5 Z"/></g>
<g><path style="opacity:1" fill="#f5ccb3" d="M 297.5,343.5 C 310.898,352.058 323.898,361.225 336.5,371C 357.577,383.216 380.244,388.883 404.5,388C 413.253,387.045 421.587,384.711 429.5,381C 431.017,379.315 432.684,377.815 434.5,376.5C 438.263,411.492 428.763,442.159 406,468.5C 395.437,479.732 384.27,490.232 372.5,500C 360.168,505.024 348.168,504.357 336.5,498C 315.467,476.108 300.467,450.608 291.5,421.5C 291.844,414.918 291.177,408.584 289.5,402.5C 289.5,401.5 289.5,400.5 289.5,399.5C 289.334,395.154 289.501,390.821 290,386.5C 293.726,372.373 296.226,358.039 297.5,343.5 Z"/></g>
<g><path style="opacity:1" fill="#2f302f" d="M 459.5,361.5 C 460.5,361.5 461.5,361.5 462.5,361.5C 464.843,370.122 465.009,378.788 463,387.5C 462.632,388.91 461.799,389.91 460.5,390.5C 459.194,389.088 458.36,387.421 458,385.5C 457.016,377.345 457.516,369.345 459.5,361.5 Z"/></g>
<g><path style="opacity:1" fill="#adadad" d="M 1726.5,342.5 C 1726.57,353.364 1725.9,364.03 1724.5,374.5C 1724.43,363.636 1725.1,352.97 1726.5,342.5 Z"/></g>
<g><path style="opacity:1" fill="#949494" d="M 1013.5,365.5 C 1013.56,370.731 1012.89,375.731 1011.5,380.5C 1011.44,375.269 1012.11,370.269 1013.5,365.5 Z"/></g>
<g><path style="opacity:1" fill="#131110" d="M 560.5,377.5 C 567.508,377.334 574.508,377.5 581.5,378C 584.167,379.667 584.167,381.333 581.5,383C 574.089,385.325 566.923,384.825 560,381.5C 559.421,380.072 559.588,378.738 560.5,377.5 Z"/></g>
<g><path style="opacity:1" fill="#a5a5a5" d="M 1886.5,366.5 C 1886.78,372.417 1886.12,378.084 1884.5,383.5C 1884.6,377.627 1885.26,371.96 1886.5,366.5 Z"/></g>
<g><path style="opacity:1" fill="#2c2b2d" d="M 310.5,490.5 C 312.547,492.55 314.214,494.883 315.5,497.5C 311.797,494.344 308.963,495.011 307,499.5C 304.718,510.827 309.218,515.994 320.5,515C 322.726,512.036 323.059,508.87 321.5,505.5C 326.349,508.838 331.349,512.004 336.5,515C 344.051,516.879 351.718,517.713 359.5,517.5C 355.688,518.324 351.688,518.824 347.5,519C 354.799,524.812 363.132,527.478 372.5,527C 373.727,528.587 373.394,529.921 371.5,531C 365.755,533.46 359.755,534.127 353.5,533C 348.734,531.268 344.067,529.601 339.5,528C 343.633,533.134 348.133,537.968 353,542.5C 355.254,546.007 357.254,549.673 359,553.5C 362.285,564.64 364.618,575.973 366,587.5C 366.176,583.312 366.676,579.312 367.5,575.5C 366.325,590.172 366.325,604.839 367.5,619.5C 366.691,617.708 366.191,615.708 366,613.5C 364.747,618.773 363.913,624.106 363.5,629.5C 356.167,629.5 348.833,629.5 341.5,629.5C 341.203,619.313 338.87,609.647 334.5,600.5C 334.079,593.1 331.412,586.267 326.5,580C 325.255,579.209 323.922,578.709 322.5,578.5C 321.325,578.281 320.325,578.614 319.5,579.5C 322.491,586.956 324.324,594.623 325,602.5C 321.975,603.709 319.141,603.209 316.5,601C 311.97,593.751 308.804,585.917 307,577.5C 306.777,566.801 306.11,556.134 305,545.5C 302.998,538.162 300.998,530.829 299,523.5C 296.588,518.341 293.921,513.341 291,508.5C 287.159,504.135 283.326,499.802 279.5,495.5C 276.626,490.446 273.126,485.78 269,481.5C 269.669,493.527 271.003,505.527 273,517.5C 273.171,510.321 273.671,503.321 274.5,496.5C 275.337,531.571 277.504,566.571 281,601.5C 282.225,610.027 283.725,618.36 285.5,626.5C 268.334,622.401 252,616.401 236.5,608.5C 235.701,601.109 233.701,594.109 230.5,587.5C 231.525,587.103 231.692,586.437 231,585.5C 222.203,577.363 214.869,568.03 209,557.5C 208.31,556.262 207.81,556.262 207.5,557.5C 205.023,550.601 201.856,543.935 198,537.5C 190.386,525.249 182.553,513.249 174.5,501.5C 170.943,494.725 167.11,488.058 163,481.5C 162.506,483.134 162.34,484.801 162.5,486.5C 161.849,485.909 161.182,485.243 160.5,484.5C 156.858,505.496 154.192,526.663 152.5,548C 152.305,550.352 152.972,552.352 154.5,554C 153.944,554.383 153.611,554.883 153.5,555.5C 139.724,543.395 127.391,530.061 116.5,515.5C 120.576,506.64 123.576,497.307 125.5,487.5C 119.985,489.749 114.319,491.749 108.5,493.5C 109.686,487.471 113.02,482.971 118.5,480C 123.5,480.333 128.5,480.667 133.5,481C 136.295,479.207 138.795,477.04 141,474.5C 148.359,463.491 154.359,451.824 159,439.5C 162.269,436.117 166.103,433.617 170.5,432C 180.86,431.73 190.527,429.064 199.5,424C 206.104,420.232 211.104,415.065 214.5,408.5C 202.783,412.019 191.449,416.685 180.5,422.5C 180.167,422.167 179.833,421.833 179.5,421.5C 189.303,410.099 201.636,403.766 216.5,402.5C 222.579,403.083 228.579,404.083 234.5,405.5C 234.662,403.473 234.495,401.473 234,399.5C 231.472,397 230.639,394.166 231.5,391C 238.989,393.058 246.656,394.558 254.5,395.5C 254.66,393.801 254.494,392.134 254,390.5C 251.597,386.365 249.763,382.032 248.5,377.5C 254.664,379.49 259.164,383.49 262,389.5C 265.833,399.462 267.5,409.795 267,420.5C 271.386,446.366 281.553,469.533 297.5,490C 301.753,492.911 306.086,493.078 310.5,490.5 Z"/></g>
<g><path style="opacity:1" fill="#b3b3b3" d="M 1931.5,380.5 C 1931.41,387.037 1930.75,393.37 1929.5,399.5C 1929.24,392.928 1929.91,386.594 1931.5,380.5 Z"/></g>
<g><path style="opacity:1" fill="#aeaeae" d="M 1475.5,339.5 C 1474.84,374.83 1474.51,410.163 1474.5,445.5C 1473.12,410.154 1473.46,374.821 1475.5,339.5 Z"/></g>
<g><path style="opacity:1" fill="#a0a0a0" d="M 1010.5,396.5 C 1009.95,405.692 1008.95,414.692 1007.5,423.5C 1007.42,414.24 1008.42,405.24 1010.5,396.5 Z"/></g>
<g><path style="opacity:1" fill="#141414" d="M 459.5,401.5 C 460.79,402.058 461.623,403.058 462,404.5C 465.618,417.603 465.285,430.603 461,443.5C 459.987,445.846 458.321,447.513 456,448.5C 455.228,448.355 454.561,448.022 454,447.5C 453.539,431.855 455.372,416.522 459.5,401.5 Z"/></g>
<g><path style="opacity:1" fill="#a5a5a5" d="M 1863.5,402.5 C 1863.31,407.37 1862.64,412.036 1861.5,416.5C 1861.12,411.547 1861.79,406.881 1863.5,402.5 Z"/></g>
<g><path style="opacity:1" fill="#8c786d" d="M 289.5,402.5 C 291.177,408.584 291.844,414.918 291.5,421.5C 289.823,415.416 289.156,409.082 289.5,402.5 Z"/></g>
<g><path style="opacity:1" fill="#989898" d="M 1883.5,397.5 C 1882.91,407.156 1882.57,416.822 1882.5,426.5C 1881.19,416.793 1881.52,407.126 1883.5,397.5 Z"/></g>
<g><path style="opacity:1" fill="#2b2b2d" d="M 594.5,416.5 C 601.347,417.422 608.347,417.589 615.5,417C 608.37,428.095 600.87,438.928 593,449.5C 592.308,450.437 592.475,451.103 593.5,451.5C 569.021,483.136 548.521,517.136 532,553.5C 526.029,563.944 519.196,573.777 511.5,583C 510.551,583.617 509.718,583.451 509,582.5C 508.333,577.167 508.333,571.833 509,566.5C 512.855,545.567 517.355,524.9 522.5,504.5C 522.435,504.938 522.601,505.272 523,505.5C 528.067,488.227 533.901,471.227 540.5,454.5C 540.376,453.893 540.043,453.56 539.5,453.5C 544.758,442.401 552.425,433.234 562.5,426C 572.709,421.32 583.375,418.153 594.5,416.5 Z"/></g>
<g><path style="opacity:1" fill="#adadad" d="M 1928.5,416.5 C 1928.47,422.051 1927.81,427.384 1926.5,432.5C 1926.38,426.931 1927.04,421.598 1928.5,416.5 Z"/></g>
<g><path style="opacity:1" fill="#a5a5a5" d="M 835.5,428.5 C 840.167,429.167 844.833,429.833 849.5,430.5C 844.456,430.827 839.456,430.494 834.5,429.5C 834.624,428.893 834.957,428.56 835.5,428.5 Z"/></g>
<g><path style="opacity:1" fill="#9d9d9d" d="M 1323.5,428.5 C 1329.07,428.376 1334.4,429.043 1339.5,430.5C 1333.95,430.473 1328.62,429.806 1323.5,428.5 Z"/></g>
<g><path style="opacity:1" fill="#131313" d="M 219.5,426.5 C 221.321,441.133 222.154,456.133 222,471.5C 222.667,499.167 222.667,526.833 222,554.5C 208.465,527.432 194.632,500.432 180.5,473.5C 181.091,471.734 181.924,470.067 183,468.5C 195.003,454.333 207.169,440.333 219.5,426.5 Z"/></g>
<g><path style="opacity:1" fill="#d4c8bf" d="M 278.5,351.5 C 251.211,367.483 223.544,382.983 195.5,398C 179.164,407.499 163.164,417.499 147.5,428C 144.035,432.467 140.202,436.633 136,440.5C 127.773,453.394 118.773,465.727 109,477.5C 105.849,482.81 103.015,488.143 100.5,493.5C 98.9373,492.055 97.604,490.389 96.5,488.5C 101.15,478.558 107.316,469.558 115,461.5C 123.013,448.484 132.18,436.317 142.5,425C 157.332,415.416 172.332,406.083 187.5,397C 205.826,387.172 223.826,376.839 241.5,366C 252.75,361.041 263.417,355.041 273.5,348C 278.718,344.035 280.384,345.202 278.5,351.5 Z"/></g>
<g><path style="opacity:1" fill="#b8b8b8" d="M 1697.5,431.5 C 1697.18,439.019 1697.51,446.352 1698.5,453.5C 1698.44,454.043 1698.11,454.376 1697.5,454.5C 1696.18,446.677 1696.18,439.01 1697.5,431.5 Z"/></g>
<g><path style="opacity:1" fill="#2b2b2c" d="M 652.5,458.5 C 643.717,476.25 633.383,492.917 621.5,508.5C 626.986,491.557 631.319,473.557 634.5,454.5C 634.333,452.833 634.167,451.167 634,449.5C 633.107,448.919 632.107,448.585 631,448.5C 626.111,450.361 621.278,452.361 616.5,454.5C 615.479,453.998 615.312,453.332 616,452.5C 632.549,430.666 644.716,432.666 652.5,458.5 Z"/></g>
<g><path style="opacity:1" fill="#2d2d2d" d="M 480.5,424.5 C 481.209,429.112 482.209,433.779 483.5,438.5C 479.736,449.239 475.236,459.906 470,470.5C 468.989,471.337 467.822,471.67 466.5,471.5C 466.488,465.129 466.988,458.796 468,452.5C 469.714,443.356 473.714,435.356 480,428.5C 480.49,427.207 480.657,425.873 480.5,424.5 Z"/></g>
<g><path style="opacity:1" fill="#787878" d="M 794.5,449.5 C 796.5,450.167 798.5,450.833 800.5,451.5C 798.076,451.808 795.743,451.474 793.5,450.5C 793.624,449.893 793.957,449.56 794.5,449.5 Z"/></g>
<g><path style="opacity:1" fill="#b1b1b1" d="M 1086.5,449.5 C 1094.67,449.899 1102.67,450.565 1110.5,451.5C 1103.49,451.666 1096.49,451.5 1089.5,451C 1088.26,450.768 1087.26,450.268 1086.5,449.5 Z"/></g>
<g><path style="opacity:1" fill="#ababab" d="M 1934.5,450.5 C 1943.18,451.717 1951.85,451.717 1960.5,450.5C 1960.08,451.222 1959.42,451.722 1958.5,452C 1955.33,452.167 1952.17,452.333 1949,452.5C 1943.91,452.656 1939.08,451.99 1934.5,450.5 Z"/></g>
<g><path style="opacity:1" fill="#b0b0b0" d="M 1110.5,451.5 C 1120.02,451.601 1129.36,452.267 1138.5,453.5C 1128.96,453.655 1119.63,452.988 1110.5,451.5 Z"/></g>
<g><path style="opacity:1" fill="#b6b6b6" d="M 1293.5,451.5 C 1302.69,451.645 1311.69,452.311 1320.5,453.5C 1311.29,453.697 1302.29,453.03 1293.5,451.5 Z"/></g>
<g><path style="opacity:1" fill="#474749" d="M 539.5,453.5 C 540.043,453.56 540.376,453.893 540.5,454.5C 533.901,471.227 528.067,488.227 523,505.5C 522.601,505.272 522.435,504.938 522.5,504.5C 525.997,486.674 531.664,469.674 539.5,453.5 Z"/></g>
<g><path style="opacity:1" fill="#121212" d="M 471.5,582.5 C 469.103,588.442 465.769,593.942 461.5,599C 448.057,609.776 434.057,619.776 419.5,629C 423.356,629.177 427.023,629.677 430.5,630.5C 415.461,633.219 400.461,635.219 385.5,636.5C 366.124,636.841 346.79,636.174 327.5,634.5C 313.253,633.105 299.253,630.438 285.5,626.5C 283.725,618.36 282.225,610.027 281,601.5C 277.504,566.571 275.337,531.571 274.5,496.5C 275.748,494.31 277.414,493.977 279.5,495.5C 283.326,499.802 287.159,504.135 291,508.5C 293.921,513.341 296.588,518.341 299,523.5C 300.998,530.829 302.998,538.162 305,545.5C 306.11,556.134 306.777,566.801 307,577.5C 308.804,585.917 311.97,593.751 316.5,601C 319.141,603.209 321.975,603.709 325,602.5C 324.324,594.623 322.491,586.956 319.5,579.5C 320.325,578.614 321.325,578.281 322.5,578.5C 328.053,584.936 332.053,592.269 334.5,600.5C 338.87,609.647 341.203,619.313 341.5,629.5C 348.833,629.5 356.167,629.5 363.5,629.5C 365.167,629.5 366.833,629.5 368.5,629.5C 368.384,626.14 368.051,622.807 367.5,619.5C 366.325,604.839 366.325,590.172 367.5,575.5C 368.082,568.087 369.249,560.753 371,553.5C 372.123,550.751 373.623,548.251 375.5,546C 379.889,546.059 382.223,543.893 382.5,539.5C 381.353,536.053 380.02,532.72 378.5,529.5C 378.833,528.833 379.167,528.167 379.5,527.5C 383.67,529.352 388.004,529.852 392.5,529C 412.662,521.514 429.496,509.347 443,492.5C 444.552,490.232 445.385,487.732 445.5,485C 445.499,481.144 443.499,479.311 439.5,479.5C 435.444,480.872 431.444,482.205 427.5,483.5C 427.317,481.064 427.984,478.897 429.5,477C 432.167,475.333 434.833,473.667 437.5,472C 457.523,465.582 468.356,472.749 470,493.5C 471.041,507.83 472.041,522.164 473,536.5C 473.979,551.916 473.479,567.25 471.5,582.5 Z"/></g>
<g><path style="opacity:1" fill="#e2c4b4" d="M 462.5,330.5 C 454.187,352.008 451.02,374.341 453,397.5C 452.398,420.518 446.731,442.185 436,462.5C 422.987,480.852 407.82,497.352 390.5,512C 382.955,518.138 374.622,519.972 365.5,517.5C 369.571,516.644 373.571,515.477 377.5,514C 399.041,498.126 417.541,479.293 433,457.5C 435.278,451.333 437.945,445.333 441,439.5C 449.386,411.457 452.719,382.791 451,353.5C 452.597,345.209 455.097,337.209 458.5,329.5C 460.031,328.579 461.365,328.912 462.5,330.5 Z"/></g>
<g><path style="opacity:1" fill="#131314" d="M 162.5,486.5 C 166.271,491.722 170.271,496.722 174.5,501.5C 182.553,513.249 190.386,525.249 198,537.5C 201.856,543.935 205.023,550.601 207.5,557.5C 210.926,567.524 216.259,576.357 223.5,584C 226.069,584.898 228.402,586.065 230.5,587.5C 233.701,594.109 235.701,601.109 236.5,608.5C 205.931,595.242 178.264,577.576 153.5,555.5C 153.611,554.883 153.944,554.383 154.5,554C 152.972,552.352 152.305,550.352 152.5,548C 154.192,526.663 156.858,505.496 160.5,484.5C 161.182,485.243 161.849,485.909 162.5,486.5 Z"/></g>
<g><path style="opacity:1" fill="#575759" d="M 174.5,501.5 C 170.271,496.722 166.271,491.722 162.5,486.5C 162.34,484.801 162.506,483.134 163,481.5C 167.11,488.058 170.943,494.725 174.5,501.5 Z"/></g>
<g><path style="opacity:1" fill="#5c5a5d" d="M 279.5,495.5 C 277.414,493.977 275.748,494.31 274.5,496.5C 273.671,503.321 273.171,510.321 273,517.5C 271.003,505.527 269.669,493.527 269,481.5C 273.126,485.78 276.626,490.446 279.5,495.5 Z"/></g>
<g><path style="opacity:1" fill="#5f5d5f" d="M 315.5,497.5 C 317.853,499.86 319.853,502.527 321.5,505.5C 323.059,508.87 322.726,512.036 320.5,515C 309.218,515.994 304.718,510.827 307,499.5C 308.963,495.011 311.797,494.344 315.5,497.5 Z"/></g>
<g><path style="opacity:1" fill="#2b2b2c" d="M 487.5,467.5 C 490.326,482.816 492.326,498.483 493.5,514.5C 492.114,535.052 490.281,555.718 488,576.5C 485.947,589.708 483.113,602.708 479.5,615.5C 463.681,621.882 447.348,626.882 430.5,630.5C 427.023,629.677 423.356,629.177 419.5,629C 434.057,619.776 448.057,609.776 461.5,599C 465.769,593.942 469.103,588.442 471.5,582.5C 471.81,583.738 472.31,583.738 473,582.5C 473.667,579.833 474.333,577.167 475,574.5C 475.808,551.434 477.475,528.434 480,505.5C 481.57,492.631 484.07,479.965 487.5,467.5 Z"/></g>
<g><path style="opacity:1" fill="#5c5c5c" d="M 493.5,514.5 C 497.409,544.775 500.743,575.108 503.5,605.5C 495.982,609.79 487.982,613.123 479.5,615.5C 483.113,602.708 485.947,589.708 488,576.5C 490.281,555.718 492.114,535.052 493.5,514.5 Z"/></g>
<g><path style="opacity:1" fill="#59595b" d="M 230.5,587.5 C 228.402,586.065 226.069,584.898 223.5,584C 216.259,576.357 210.926,567.524 207.5,557.5C 207.81,556.262 208.31,556.262 209,557.5C 214.869,568.03 222.203,577.363 231,585.5C 231.692,586.437 231.525,587.103 230.5,587.5 Z"/></g>
<g><path style="opacity:1" fill="#535355" d="M 322.5,578.5 C 323.922,578.709 325.255,579.209 326.5,580C 331.412,586.267 334.079,593.1 334.5,600.5C 332.053,592.269 328.053,584.936 322.5,578.5 Z"/></g>
<g><path style="opacity:1" fill="#585756" d="M 367.5,619.5 C 368.051,622.807 368.384,626.14 368.5,629.5C 366.833,629.5 365.167,629.5 363.5,629.5C 363.913,624.106 364.747,618.773 366,613.5C 366.191,615.708 366.691,617.708 367.5,619.5 Z"/></g>
<g><path style="opacity:1" fill="#c6c6c6" d="M 327.5,634.5 C 346.79,636.174 366.124,636.841 385.5,636.5C 371.673,637.661 357.673,637.827 343.5,637C 337.954,636.631 332.62,635.797 327.5,634.5 Z"/></g>
</svg>
